<svg width="411" height="54" viewBox="0 0 411 54" fill="none" xmlns="http://www.w3.org/2000/svg">
<path d="M87.3601 8.36896H102.719V20.7725H117.23V8.36896H132.563V44.9823H117.23V30.7869H102.719V44.9823H87.3601V8.36896ZM154.383 8.36896H169.954L186.663 44.9624H171.41L169.557 40.1045H154.383L152.556 44.9624H137.674L154.383 8.36896ZM157.216 32.4991H166.882L161.957 19.3988L157.216 32.4991ZM183.803 8.38887H199.294L207.53 32.7181L216.03 8.38887H231.442L215.236 44.9823H199.824L183.803 8.38887ZM237.718 8.38887H275.85V16.9499H253.077V22.2259H272.249V30.767H253.077V36.5208H276.751V45.062H237.718V8.38887ZM284.589 8.38887H299.921V36.481H320.947V45.0222H284.589V8.38887ZM327.885 8.38887H343.244V36.481H364.243V45.0222H327.885V8.38887ZM395.12 19.0006C394.749 16.9101 392.631 15.8549 388.844 15.8549C385.825 15.8549 384.245 16.5119 384.104 17.8259C384.051 18.6422 384.554 19.3191 385.613 19.8766C386.673 20.3942 388.076 20.8521 389.85 21.2105C391.624 21.5689 393.346 21.9073 394.988 22.1861C400.469 23.2015 404.494 24.5752 407.116 26.2874C409.711 28.0195 410.982 30.4286 410.929 33.4548C410.929 36.4611 409.923 38.8502 407.884 40.7615C405.836 42.6463 403.161 43.9935 399.86 44.8032C396.576 45.6394 393.028 46.0375 389.188 46.0375C383.495 46.0375 378.649 44.8828 374.73 42.5932C370.758 40.3235 368.639 37.3172 368.401 33.6738H383.124C383.468 35.1272 384.342 36.1426 385.825 36.7199C387.255 37.2973 388.765 37.596 390.327 37.596C394.087 37.4566 396.073 36.6204 396.285 35.1073C396.47 34.0521 395.808 33.2557 394.246 32.6982C392.71 32.1408 390.353 31.5634 387.149 30.9462C383.151 30.1897 379.946 29.3734 377.563 28.577C375.18 27.7408 373.247 26.5263 371.711 24.9535C370.149 23.3408 369.407 21.2105 369.46 18.5626C369.513 15.2974 371.393 12.6296 374.995 10.559C378.622 8.48841 383.548 7.45312 389.824 7.45312C393.16 7.45312 396.206 7.8314 398.986 8.54814C401.767 9.28479 404.15 10.4993 406.083 12.2513C408.016 14.0033 409.261 16.2531 409.711 19.0205C409.711 19.0205 395.12 19.0205 395.12 19.0006Z" fill="white"/>
<path d="M14.2996 16.0149C14.0613 16.0149 13.8494 16.0149 13.6376 15.9751C12.2341 15.8158 11.1219 15.1986 10.6188 14.2032C10.354 13.7452 10.248 13.2674 10.248 12.7299C10.248 11.9932 10.5129 11.2168 10.7247 10.6593C11.8634 7.57334 13.2139 5.3833 14.7498 4.00955C15.0411 3.73082 15.3588 3.49191 15.6766 3.31272L15.7825 3.253C15.7825 3.253 15.8355 3.21318 15.8885 3.21318C16.4357 2.89463 16.9918 2.73535 17.5567 2.73535C18.8543 2.73535 20.2313 3.61137 21.4229 5.22403C22.694 6.87651 23.7533 9.32536 24.5477 12.252C24.839 13.2674 25.0508 14.2629 25.2627 15.3579C24.6977 15.3845 24.1328 15.411 23.5679 15.4375C21.6613 15.5371 19.94 15.6366 18.2188 15.7561C17.3979 15.7959 16.5505 15.8556 15.7296 15.9353H15.5177C15.094 15.9751 14.6703 16.0149 14.2996 16.0149Z" fill="white"/>
<path d="M16.4977 50.3784C15.9417 50.3784 15.3856 50.2192 14.8295 49.8608L14.7765 49.8409H14.75L14.7235 49.7811C14.7235 49.7811 14.6706 49.7811 14.6441 49.7612C14.3793 49.5821 14.0615 49.3431 13.7702 49.0445C12.2343 47.5712 10.9633 45.2418 9.90403 41.9568C9.69218 41.24 9.45386 40.4436 9.45386 39.707C9.45386 39.1495 9.55978 38.6319 9.79811 38.1142C10.3277 37.0391 11.334 36.3025 12.711 36.0038C13.1082 35.9242 13.4789 35.9043 13.9026 35.9043C14.1939 35.9043 14.4322 35.9043 14.75 35.9242C15.5974 35.9839 16.4713 36.0636 17.3981 36.1034C19.1723 36.2228 21.0789 36.3423 23.012 36.4219C23.674 36.4618 24.389 36.5016 25.051 36.5414C24.7598 37.8952 24.442 39.1296 24.0977 40.3441C23.1709 43.3902 21.9793 45.9187 20.6552 47.6707C19.3577 49.383 17.8483 50.3784 16.5507 50.3784" fill="white"/>
<path d="M73.3783 26.5665C73.3518 20.3946 70.6773 14.2824 65.9372 9.36479C62.071 5.38291 57.0926 2.33677 51.2933 0.405562C50.8167 0.266197 49.3073 -0.0523537 48.9365 0.00737454C47.4801 0.226378 46.4738 1.22185 46.156 2.55578C46.0766 2.85442 46.0501 3.21279 46.0501 3.55125C45.9707 4.20826 45.9442 4.90509 45.9177 5.66164C45.9177 5.79437 45.9177 5.98019 45.9177 6.21911C45.8647 7.07521 45.8118 8.36932 45.7059 8.86706C44.6731 13.2272 38.8473 16.0145 33.763 16.1738C30.2676 16.2734 26.9045 16.4127 23.6738 16.572C21.8731 16.6715 20.0989 16.7711 18.3777 16.8905C17.5303 16.9304 16.7094 16.9901 15.8885 17.0697H15.7031C15.2441 17.1228 14.7851 17.1494 14.3261 17.1494C14.0083 17.1494 13.6906 17.1494 13.4522 17.0896C11.5191 16.8905 9.98326 15.9747 9.2418 14.601C8.92403 14.0037 8.73866 13.3666 8.73866 12.6698C8.73866 11.7738 9.02995 10.9376 9.26828 10.3005C9.71845 9.10597 10.3275 7.65258 11.2014 6.1992C8.28849 8.44896 5.82578 11.0571 3.9986 13.8842C1.48292 17.7466 0.105923 22.0471 0 26.3077V26.8652C0 34.3312 3.68083 41.399 10.1951 46.7148C9.32124 45.1619 8.73866 43.5293 8.36793 42.2153C8.10312 41.4388 7.8648 40.5827 7.8648 39.7067C7.8648 39.0298 7.9972 38.3529 8.31497 37.7357C9.02995 36.2624 10.4334 35.2669 12.3401 34.8886C12.8167 34.7825 13.3375 34.7294 13.9024 34.7294C14.2202 34.7294 14.538 34.7294 14.9352 34.7891C15.7826 34.8488 16.6035 34.9285 17.5303 34.9683C19.278 35.0877 21.1846 35.2072 23.1177 35.2868C26.4808 35.4859 30.0292 35.6054 33.6836 35.7248C36.4905 35.8045 39.4034 36.6606 41.7073 38.0941C44.117 39.6072 45.6264 41.618 46.0236 43.7284C46.0766 44.1863 46.1825 45.4406 46.2355 46.3764C46.2355 46.6949 46.2355 46.9338 46.262 47.0931C46.3414 48.1483 46.4473 49.104 46.5003 49.98C46.5532 50.3383 46.5797 50.7166 46.6062 51.0352C46.924 52.2496 47.8773 53.1655 49.2013 53.4044C49.6603 53.484 50.1193 53.484 50.5783 53.4044C50.9226 53.2849 51.3198 53.1655 51.664 53.046C57.3839 51.0352 62.3093 47.9691 66.0961 43.9673C70.8097 39.0298 73.3783 32.9176 73.3783 26.7855V26.6262V26.5665Z" fill="white"/>
</svg>
