<svg width="367" height="50" viewBox="0 0 367 50" fill="none" xmlns="http://www.w3.org/2000/svg">
<g clip-path="url(#clip0_52_105)">
<path d="M26.6367 33.6735H16.6193V22.2653H23.1295C24.3673 22.2653 25.4218 22.2449 26.6597 22.1837C27.057 22.1701 27.4543 22.1156 27.8517 22.0204C28.249 21.9252 28.631 21.7891 28.9978 21.6122C29.3493 21.449 29.6855 21.2449 30.0064 21C30.3121 20.7551 30.5795 20.483 30.8087 20.1837C30.9463 20.034 31.0685 19.8776 31.1755 19.7143C31.2825 19.5374 31.3742 19.3605 31.4506 19.1837C31.5423 19.0068 31.6111 18.8231 31.6569 18.6327C31.718 18.4558 31.7639 18.2653 31.7944 18.0612C31.9091 17.3878 31.9091 16.8163 31.8403 16.1429C31.7715 15.5306 31.5881 14.9388 31.2901 14.4082C30.9692 13.8571 30.5566 13.3673 30.0523 12.9592C29.548 12.551 28.952 12.2449 28.333 12.0204C27.6912 11.7959 27.0035 11.6939 26.3387 11.6939H16.6193V48.6531H0V0H27.141C28.2184 0 29.1354 0.0204082 30.2127 0.0612245C37.4335 0.408163 43.3477 3.97959 46.4194 9.77551C46.8015 10.4966 47.13 11.2313 47.4051 11.9796C47.6649 12.7415 47.8712 13.517 48.024 14.3061C48.1616 15.0816 48.238 15.8639 48.2533 16.6531C48.2838 17.4558 48.238 18.2517 48.1157 19.0408C47.9324 20.6939 47.4739 22.3265 46.6945 23.8571C45.938 25.3878 44.9294 26.8163 43.6686 28.0612C42.4079 29.3061 40.9179 30.3469 39.2903 31.1837C37.6628 32.0204 35.8977 32.6327 34.0409 32.9592C33.4449 33.0816 32.8413 33.1905 32.23 33.2857C31.6034 33.3673 30.9845 33.4422 30.3732 33.5102C29.7619 33.5646 29.143 33.6054 28.5164 33.6327C27.8899 33.6599 27.2709 33.6735 26.6597 33.6735" fill="white"/>
<path d="M88.3229 45.939C88.3382 46.1839 88.3687 46.4288 88.4146 46.6737C88.4604 46.905 88.5292 47.1363 88.6209 47.3676C88.7126 47.5989 88.8119 47.8234 88.9189 48.0411C89.0411 48.2724 89.1787 48.4901 89.3315 48.6941H74.8441C74.4773 48.3268 74.2251 47.9594 74.0418 47.5105C73.7208 46.6533 73.4458 45.9594 73.1707 45.1023L72.2308 39.1227C72.8039 38.3472 73.1248 37.5717 73.2624 36.6533C73.4687 35.388 73.4687 34.3064 73.3082 33.0207C71.5202 33.7554 69.9614 34.2656 68.0588 34.7349C67.692 34.8302 67.3253 34.9322 66.9585 35.0411C66.5917 35.1363 66.2249 35.2383 65.8582 35.3472C65.4914 35.456 65.1246 35.5649 64.7579 35.6737C64.3911 35.7826 64.0243 35.8982 63.6576 36.0207C63.5047 36.0615 63.3596 36.1159 63.222 36.1839C63.0692 36.2383 62.924 36.2996 62.7865 36.3676C62.6489 36.4492 62.519 36.5309 62.3968 36.6125C62.2592 36.6941 62.1293 36.7826 62.0071 36.8778C61.8237 37.0139 61.6632 37.1703 61.5257 37.3472C61.3882 37.5241 61.2812 37.7145 61.2048 37.9186C61.1284 38.1227 61.0825 38.3268 61.0672 38.5309C61.052 38.7486 61.0672 38.9662 61.1131 39.1839C61.1436 39.32 61.1895 39.4492 61.2506 39.5717C61.2965 39.7077 61.3576 39.837 61.434 39.9594C61.5104 40.0819 61.5945 40.1975 61.6862 40.3064C61.7779 40.4288 61.8772 40.5377 61.9842 40.6329C62.1064 40.7554 62.2363 40.871 62.3739 40.9798C62.5114 41.0751 62.6642 41.1635 62.8323 41.2452C62.9851 41.3268 63.1456 41.4016 63.3137 41.4696C63.4818 41.5377 63.6576 41.5921 63.8409 41.6329C64.7579 41.8574 65.5602 41.9186 66.523 41.837C67.6462 41.7349 68.586 41.5105 69.6405 41.1023C69.9003 41.0071 70.1525 40.8914 70.397 40.7554C70.6415 40.6193 70.8784 40.4628 71.1076 40.286C71.3215 40.1227 71.5278 39.9458 71.7265 39.7554C71.9099 39.5513 72.078 39.3404 72.2308 39.1227L73.1707 45.1023C72.8345 45.4832 72.4677 45.837 72.0704 46.1635C71.6883 46.49 71.2833 46.7894 70.8554 47.0615C70.4123 47.3472 69.9614 47.6057 69.503 47.837C69.0292 48.0683 68.5402 48.2656 68.0359 48.4288C67.0273 48.8098 65.9804 49.1091 64.8954 49.3268C63.8257 49.5445 62.7406 49.6805 61.6403 49.7349C60.5247 49.7894 59.4244 49.7554 58.3394 49.6329C57.2391 49.5105 56.1617 49.3064 55.1072 49.0207C54.1444 48.7758 53.2275 48.4288 52.3794 47.9798C51.5312 47.5105 50.7518 46.9594 50.0641 46.3064C49.3764 45.6737 48.8033 44.939 48.3449 44.1635C47.8864 43.3676 47.5426 42.5309 47.3363 41.6737C46.9924 40.286 46.9236 39.0411 47.1529 37.6329C47.2293 37.1159 47.3515 36.6193 47.5196 36.1431C47.703 35.6533 47.9246 35.1839 48.1844 34.7349C48.4595 34.286 48.7728 33.8574 49.1243 33.4492C49.4758 33.0547 49.8654 32.6873 50.2933 32.3472C50.6143 32.0751 50.9505 31.8234 51.302 31.5921C51.6535 31.3608 52.0202 31.1431 52.4023 30.939C52.7843 30.7486 53.174 30.5717 53.5714 30.4084C53.984 30.2588 54.3966 30.1227 54.8092 30.0003C55.2677 29.8642 55.7261 29.7349 56.1846 29.6125C56.6583 29.5037 57.1244 29.3948 57.5829 29.286C58.0414 29.1771 58.5075 29.0751 58.9812 28.9798C59.455 28.8846 59.9287 28.7962 60.4025 28.7145C61.8695 28.4492 63.1074 28.2452 64.5974 28.0207C65.0406 27.9526 65.4761 27.8846 65.904 27.8166C66.3472 27.7349 66.7904 27.6533 67.2336 27.5717C67.6767 27.49 68.1123 27.4016 68.5402 27.3064C68.9834 27.2111 69.4189 27.1091 69.8468 27.0003C70.2365 26.8982 70.5804 26.8166 70.97 26.6737C71.1229 26.6329 71.268 26.5717 71.4056 26.49C71.5584 26.422 71.6959 26.3472 71.8182 26.2656C71.9405 26.1703 72.0627 26.0751 72.185 25.9798C72.2919 25.871 72.3913 25.7554 72.483 25.6329C72.9185 25.0819 73.0331 24.4288 72.8268 23.7758C72.7351 23.5173 72.6129 23.2792 72.4601 23.0615C72.3072 22.8302 72.1315 22.6193 71.9328 22.4288C71.7189 22.2383 71.4896 22.0751 71.2451 21.939C70.9853 21.803 70.7179 21.7009 70.4428 21.6329C70.0149 21.4969 69.5794 21.4016 69.1362 21.3472C68.693 21.2792 68.2498 21.2451 67.8066 21.2451C67.3482 21.2588 66.905 21.3064 66.4771 21.388C66.0339 21.456 65.5984 21.5649 65.1705 21.7145C64.8954 21.7962 64.628 21.9118 64.3682 22.0615C64.1084 22.1975 63.8715 22.3608 63.6576 22.5513C63.4436 22.7417 63.2526 22.9526 63.0845 23.1839C62.9317 23.4152 62.8018 23.6601 62.6948 23.9186C62.6337 24.0819 62.5725 24.252 62.5114 24.4288C62.4656 24.5921 62.4273 24.7622 62.3968 24.939C62.3662 25.1159 62.3509 25.2928 62.3509 25.4696C62.3357 25.6465 62.3357 25.8234 62.3509 26.0003L49.193 25.7145C49.0784 25.49 49.0096 25.3064 48.9867 25.0615C48.9409 24.7622 48.9103 24.4628 48.895 24.1635C48.895 23.8642 48.9103 23.5649 48.9409 23.2656C48.9714 22.9662 49.0249 22.6669 49.1013 22.3676C49.1625 22.0683 49.2465 21.7758 49.3535 21.49C49.6057 20.7145 49.9495 20.0003 50.385 19.3064C50.8206 18.6125 51.3478 17.9594 51.9438 17.388C52.5398 16.7962 53.2275 16.286 53.9611 15.8166C54.6946 15.3676 55.474 15.0003 56.2992 14.7145C57.8121 14.1635 59.1188 13.8166 60.7234 13.5717C62.0682 13.354 63.4207 13.1975 64.7808 13.1023C66.1562 12.9934 67.5239 12.9526 68.884 12.9798C70.2594 13.0071 71.6272 13.0955 72.9873 13.2451C74.3474 13.3812 75.6922 13.5853 77.0218 13.8574C77.4497 13.939 77.8699 14.0343 78.2825 14.1431C78.6952 14.2383 79.1001 14.354 79.4975 14.49C79.8948 14.6261 80.2921 14.7758 80.6895 14.939C81.0715 15.1023 81.4536 15.2792 81.8356 15.4696C82.4622 15.769 83.0506 16.1227 83.6007 16.5309C84.1356 16.939 84.6246 17.3948 85.0678 17.8982C85.4957 18.4152 85.8701 18.9594 86.191 19.5309C86.4967 20.1023 86.7336 20.6941 86.9017 21.3064C87.0392 21.7826 87.1615 22.2588 87.2684 22.7349C87.3754 23.1975 87.4594 23.6737 87.5206 24.1635C87.597 24.6397 87.6505 25.1159 87.681 25.5921C87.7269 26.0819 87.7498 26.5649 87.7498 27.0411C87.7727 30.8166 87.8186 34.0003 87.9103 37.7758C87.979 40.6533 88.0937 43.0819 88.3229 45.939Z" fill="white"/>
<path d="M105.653 17.5712C106.096 17.2175 106.562 16.8773 107.051 16.5508C107.54 16.2243 108.037 15.9113 108.541 15.612C109.046 15.3263 109.565 15.0542 110.1 14.7957C110.635 14.5372 111.178 14.2923 111.728 14.061C112.614 13.68 113.539 13.3807 114.501 13.163C115.449 12.9317 116.419 12.7821 117.413 12.7141C118.406 12.646 119.392 12.6664 120.37 12.7753C121.363 12.8705 122.333 13.0474 123.281 13.3059C124.29 13.5508 125.275 13.9181 126.192 14.3875C127.132 14.8569 127.98 15.4283 128.737 16.1018C129.493 16.7549 130.158 17.4896 130.708 18.3059C131.258 19.1222 131.694 19.9794 131.992 20.8773C132.145 21.3127 132.282 21.7481 132.404 22.1834C132.527 22.6324 132.626 23.0814 132.702 23.5304C132.779 23.9794 132.84 24.4283 132.886 24.8773C132.916 25.3263 132.932 25.7753 132.932 26.2243V48.6528H117.39V28.4896C117.39 27.8161 117.298 27.2447 117.069 26.5916C116.992 26.3195 116.87 26.0542 116.702 25.7957C116.549 25.5508 116.358 25.3195 116.129 25.1018C115.915 24.8841 115.678 24.6936 115.418 24.5304C115.143 24.3671 114.853 24.2311 114.547 24.1222C113.905 23.8569 113.195 23.7141 112.484 23.6936C111.774 23.6732 111.063 23.7549 110.398 23.9589C109.733 24.1426 109.092 24.4487 108.541 24.8569C107.991 25.2651 107.533 25.7345 107.166 26.2855C107.013 26.5168 106.883 26.7481 106.776 26.9794C106.654 27.2243 106.555 27.476 106.478 27.7345C106.402 27.993 106.341 28.2515 106.295 28.51C106.264 28.7685 106.249 29.027 106.249 29.2855V48.6528H91.2114V13.8977H105.309L105.653 17.5712Z" fill="white"/>
<path d="M176.096 45.939C176.111 46.1839 176.142 46.4288 176.187 46.6737C176.249 46.905 176.317 47.1363 176.394 47.3676C176.485 47.5989 176.592 47.8234 176.715 48.0411C176.822 48.2724 176.952 48.4901 177.104 48.6941H162.617C162.25 48.3268 161.998 47.9594 161.815 47.5105C161.494 46.6533 161.242 45.9594 160.944 45.1023L160.027 39.1227C160.577 38.3472 160.898 37.5717 161.058 36.6533C161.242 35.388 161.265 34.3064 161.081 33.0207C159.293 33.7554 157.734 34.2656 155.855 34.7349C155.473 34.8302 155.098 34.9322 154.731 35.0411C154.365 35.1363 153.998 35.2383 153.631 35.3472C153.264 35.456 152.898 35.5649 152.531 35.6737C152.164 35.7826 151.805 35.8982 151.453 36.0207C151.301 36.0615 151.148 36.1159 150.995 36.1839C150.857 36.2383 150.72 36.2996 150.582 36.3676C150.445 36.4492 150.307 36.5309 150.17 36.6125C150.047 36.6941 149.925 36.7826 149.803 36.8778C149.604 37.0139 149.436 37.1703 149.299 37.3472C149.161 37.5241 149.054 37.7145 148.978 37.9186C148.901 38.1227 148.855 38.3268 148.84 38.5309C148.825 38.7486 148.848 38.9662 148.909 39.1839C148.939 39.32 148.978 39.4492 149.024 39.5717C149.085 39.7077 149.146 39.837 149.207 39.9594C149.283 40.0819 149.367 40.1975 149.459 40.3064C149.551 40.4288 149.65 40.5377 149.757 40.6329C149.879 40.7554 150.009 40.871 150.147 40.9798C150.3 41.0751 150.452 41.1635 150.605 41.2452C150.758 41.3268 150.919 41.4016 151.087 41.4696C151.255 41.5377 151.43 41.5921 151.614 41.6329C152.531 41.8574 153.356 41.9186 154.296 41.837C155.419 41.7349 156.382 41.5105 157.413 41.1023C157.673 41.0071 157.933 40.8914 158.193 40.7554C158.437 40.6193 158.667 40.4628 158.88 40.286C159.11 40.1227 159.316 39.9458 159.499 39.7554C159.683 39.5513 159.859 39.3404 160.027 39.1227L160.944 45.1023C160.607 45.4832 160.248 45.837 159.866 46.1635C159.469 46.49 159.056 46.7894 158.628 47.0615C158.2 47.3472 157.75 47.6057 157.276 47.837C156.802 48.0683 156.321 48.2656 155.832 48.4288C154.808 48.8098 153.761 49.1091 152.691 49.3268C151.606 49.5445 150.514 49.6805 149.413 49.7349C148.313 49.7894 147.213 49.7554 146.112 49.6329C145.012 49.5105 143.935 49.3064 142.88 49.0207C141.917 48.7758 141 48.4288 140.152 47.9798C139.304 47.5105 138.525 46.9594 137.837 46.3064C137.172 45.6737 136.576 44.939 136.118 44.1635C135.659 43.3676 135.338 42.5309 135.132 41.6737C134.765 40.286 134.719 39.0411 134.949 37.6329C135.01 37.1159 135.132 36.6193 135.315 36.1431C135.484 35.6533 135.698 35.1839 135.957 34.7349C136.232 34.286 136.546 33.8574 136.897 33.4492C137.249 33.0547 137.638 32.6873 138.066 32.3472C138.387 32.0751 138.723 31.8234 139.075 31.5921C139.426 31.3608 139.793 31.1431 140.175 30.939C140.557 30.7486 140.955 30.5717 141.367 30.4084C141.765 30.2588 142.177 30.1227 142.605 30.0003C143.048 29.8642 143.507 29.7349 143.98 29.6125C144.439 29.5037 144.897 29.3948 145.356 29.286C145.83 29.1771 146.296 29.0751 146.754 28.9798C147.228 28.8846 147.702 28.7962 148.175 28.7145C149.642 28.4492 150.88 28.2452 152.37 28.0207C152.814 27.9526 153.257 27.8846 153.7 27.8166C154.143 27.7349 154.579 27.6533 155.006 27.5717C155.45 27.49 155.885 27.4016 156.313 27.3064C156.756 27.2111 157.192 27.1091 157.62 27.0003C158.032 26.8982 158.376 26.8166 158.766 26.6737C158.919 26.6329 159.064 26.5717 159.201 26.49C159.339 26.422 159.469 26.3472 159.591 26.2656C159.729 26.1703 159.851 26.0751 159.958 25.9798C160.065 25.871 160.164 25.7554 160.256 25.6329C160.714 25.0819 160.806 24.4288 160.6 23.7758C160.508 23.5173 160.393 23.2792 160.256 23.0615C160.103 22.8302 159.92 22.6193 159.706 22.4288C159.492 22.2383 159.263 22.0751 159.018 21.939C158.758 21.803 158.491 21.7009 158.216 21.6329C157.788 21.4969 157.352 21.4016 156.909 21.3472C156.466 21.2792 156.023 21.2451 155.58 21.2451C155.136 21.2588 154.693 21.3064 154.25 21.388C153.807 21.456 153.379 21.5649 152.966 21.7145C152.676 21.7962 152.401 21.9118 152.141 22.0615C151.881 22.1975 151.644 22.3608 151.43 22.5513C151.217 22.7417 151.033 22.9526 150.88 23.1839C150.712 23.4152 150.582 23.6601 150.491 23.9186C150.414 24.0819 150.353 24.252 150.307 24.4288C150.261 24.5921 150.223 24.7622 150.193 24.939C150.162 25.1159 150.139 25.2928 150.124 25.4696C150.109 25.6465 150.109 25.8234 150.124 26.0003L136.966 25.7145C136.851 25.49 136.783 25.3064 136.76 25.0615C136.714 24.7622 136.691 24.4628 136.691 24.1635C136.676 23.8642 136.683 23.5649 136.714 23.2656C136.744 22.9662 136.798 22.6669 136.874 22.3676C136.935 22.0683 137.019 21.7758 137.126 21.49C137.379 20.7145 137.722 20.0003 138.158 19.3064C138.593 18.6125 139.121 17.9594 139.717 17.388C140.336 16.7962 141 16.286 141.734 15.8166C142.468 15.3676 143.247 15.0003 144.095 14.7145C145.585 14.1635 146.915 13.8166 148.496 13.5717C149.841 13.354 151.201 13.1975 152.577 13.1023C153.937 12.9934 155.297 12.9526 156.657 12.9798C158.032 13.0071 159.4 13.0955 160.76 13.2451C162.12 13.3812 163.465 13.5853 164.795 13.8574C165.223 13.939 165.643 14.0343 166.055 14.1431C166.468 14.2383 166.873 14.354 167.27 14.49C167.683 14.6261 168.08 14.7758 168.462 14.939C168.844 15.1023 169.226 15.2792 169.609 15.4696C170.235 15.769 170.823 16.1227 171.374 16.5309C171.924 16.939 172.413 17.3948 172.841 17.8982C173.284 18.4152 173.658 18.9594 173.964 19.5309C174.27 20.1023 174.506 20.6941 174.675 21.3064C174.812 21.7826 174.934 22.2588 175.041 22.7349C175.148 23.1975 175.24 23.6737 175.316 24.1635C175.378 24.6397 175.431 25.1159 175.477 25.5921C175.507 26.0819 175.523 26.5649 175.523 27.0411C175.546 30.8166 175.614 34.0003 175.683 37.7758C175.752 40.6533 175.889 43.0819 176.096 45.939Z" fill="white"/>
<path d="M197.804 35.8778C194.778 35.4289 192.234 34.9799 189.208 34.4288C187.672 34.1635 186.411 33.8166 184.967 33.3064C184.279 33.0751 183.63 32.7826 183.019 32.4288C182.407 32.0751 181.842 31.6669 181.322 31.2044C180.803 30.7418 180.344 30.2384 179.947 29.6942C179.534 29.1499 179.198 28.5717 178.938 27.9595C178.694 27.4152 178.503 26.8642 178.365 26.3064C178.228 25.735 178.151 25.1635 178.136 24.5921C178.105 24.0071 178.136 23.4289 178.228 22.8574C178.335 22.286 178.487 21.7282 178.686 21.184C178.854 20.7214 179.061 20.2792 179.305 19.8574C179.565 19.422 179.848 19.0071 180.153 18.6125C180.474 18.2316 180.818 17.8642 181.185 17.5105C181.567 17.1703 181.972 16.8506 182.4 16.5513C184.509 15.1023 186.618 14.2044 189.208 13.6533C191.156 13.2452 192.807 13.0411 194.801 12.9391C195.626 12.8846 196.444 12.8574 197.254 12.8574C198.079 12.8574 198.904 12.8778 199.73 12.9186C200.555 12.9595 201.372 13.0207 202.182 13.1023C202.992 13.184 203.802 13.2928 204.612 13.4289C204.964 13.4833 205.308 13.5377 205.644 13.5921C205.98 13.6601 206.316 13.735 206.652 13.8166C206.989 13.9118 207.317 14.0071 207.638 14.1023C207.974 14.1976 208.303 14.2996 208.624 14.4084C208.96 14.5173 209.289 14.6397 209.61 14.7758C209.93 14.9118 210.244 15.0615 210.549 15.2248C210.855 15.3744 211.153 15.5377 211.443 15.7146C211.734 15.8914 212.024 16.0819 212.314 16.286C212.635 16.5037 212.933 16.7418 213.208 17.0003C213.499 17.2588 213.766 17.5377 214.011 17.837C214.24 18.1363 214.454 18.4425 214.653 18.7554C214.836 19.0819 214.996 19.4152 215.134 19.7554C215.272 20.0955 215.394 20.4357 215.501 20.7758C215.608 21.1295 215.692 21.4765 215.753 21.8166C215.829 22.1703 215.883 22.5241 215.913 22.8778C215.959 23.2452 215.982 23.6057 215.982 23.9595H202.159C202.182 23.6125 202.159 23.2656 202.045 22.9391C201.93 22.6125 201.77 22.286 201.563 22.0003C201.334 21.7146 201.059 21.4697 200.761 21.2656C200.44 21.0615 200.096 20.8982 199.73 20.7962C198.125 20.3064 196.635 20.2656 194.985 20.6942C194.771 20.7486 194.557 20.8234 194.343 20.9186C194.144 21.0003 193.953 21.1091 193.77 21.2452C193.586 21.3676 193.426 21.5105 193.288 21.6737C193.135 21.8234 193.005 21.9867 192.899 22.1635L192.83 22.286C192.738 22.4765 192.685 22.6737 192.669 22.8778C192.669 23.0819 192.707 23.2792 192.784 23.4697C192.86 23.6737 192.983 23.8506 193.151 24.0003C193.303 24.1499 193.487 24.2656 193.701 24.3472C193.793 24.3744 193.877 24.4084 193.953 24.4493C194.045 24.4765 194.136 24.5037 194.228 24.5309C194.32 24.5581 194.404 24.5853 194.48 24.6125C194.572 24.6261 194.664 24.6465 194.755 24.6737C195.603 24.837 196.291 24.9595 197.139 25.0615C197.888 25.1703 198.637 25.2792 199.386 25.388C200.119 25.5105 200.86 25.6397 201.609 25.7758C202.343 25.9118 203.076 26.0615 203.81 26.2248C204.543 26.388 205.269 26.5581 205.988 26.735L207.569 27.1431C208.165 27.2928 208.746 27.4697 209.311 27.6737C209.892 27.8778 210.458 28.1159 211.008 28.388C211.543 28.6465 212.07 28.9323 212.59 29.2452C213.094 29.5717 213.575 29.9186 214.034 30.286C214.385 30.5445 214.714 30.8234 215.019 31.1227C215.31 31.422 215.585 31.735 215.845 32.0615C216.089 32.4016 216.311 32.7554 216.509 33.1227C216.693 33.4765 216.853 33.8506 216.991 34.2452C217.38 35.2452 217.587 36.3064 217.61 37.388C217.633 38.4493 217.472 39.5309 217.128 40.5513C216.807 41.5717 216.303 42.5513 215.638 43.4493C214.974 44.3472 214.148 45.1431 213.231 45.8166C213.017 45.9663 212.803 46.1159 212.59 46.2656C212.376 46.4152 212.154 46.5581 211.925 46.6942C211.711 46.8166 211.482 46.9391 211.237 47.0615C211.008 47.184 210.771 47.3064 210.526 47.4288C209.992 47.6737 209.441 47.905 208.876 48.1227C208.311 48.3268 207.737 48.5173 207.157 48.6942C206.576 48.8574 205.988 49.0003 205.392 49.1227C204.796 49.2452 204.192 49.3472 203.581 49.4288C202.297 49.6193 200.998 49.7418 199.684 49.7962C198.385 49.8506 197.086 49.8438 195.787 49.7758C194.473 49.7078 193.174 49.5717 191.89 49.3676C190.606 49.1635 189.338 48.8914 188.085 48.5513C187.473 48.4152 186.877 48.2384 186.297 48.0207C185.716 47.803 185.15 47.5581 184.6 47.286C184.05 47.0139 183.523 46.7146 183.019 46.388C182.514 46.0479 182.033 45.6874 181.574 45.3064C180.084 44.0615 179.099 42.7758 178.388 41.0819C177.907 39.9595 177.7 38.9391 177.7 37.735V37.0003H192.027C192.012 37.1635 192.012 37.32 192.027 37.4697C192.043 37.6329 192.058 37.7894 192.073 37.9391C192.104 38.1023 192.134 38.2588 192.165 38.4084C192.211 38.5581 192.257 38.7078 192.303 38.8574C192.364 39.0343 192.44 39.2112 192.532 39.388C192.623 39.5513 192.723 39.7078 192.83 39.8574C192.952 40.0207 193.082 40.1703 193.219 40.3064C193.357 40.4425 193.51 40.5717 193.678 40.6942C193.8 40.7758 193.93 40.8574 194.068 40.9391C194.19 41.0207 194.32 41.1023 194.457 41.184C194.595 41.252 194.74 41.3132 194.893 41.3676C195.046 41.422 195.198 41.4765 195.351 41.5309C196.658 41.9595 197.873 42.0411 199.248 41.8574C199.493 41.8302 199.737 41.7826 199.982 41.7146C200.211 41.6465 200.44 41.5581 200.669 41.4493C200.883 41.354 201.09 41.2384 201.288 41.1023C201.487 40.9799 201.678 40.837 201.861 40.6737C202.03 40.5241 202.175 40.354 202.297 40.1635C202.435 39.9731 202.534 39.7758 202.595 39.5717C202.671 39.3676 202.71 39.1567 202.71 38.9391C202.725 38.7078 202.702 38.4901 202.641 38.286C202.595 38.0819 202.526 37.8914 202.435 37.7146C202.328 37.5377 202.198 37.3744 202.045 37.2248C201.892 37.0751 201.724 36.9459 201.541 36.837C201.342 36.7282 201.136 36.6397 200.922 36.5717C199.844 36.2656 198.927 36.0615 197.804 35.8778ZM247.845 13.8778C248.885 14.1635 249.886 14.5173 250.848 14.9391C251.826 15.3608 252.751 15.8506 253.622 16.4084C254.508 16.9663 255.334 17.5853 256.098 18.2656C256.946 18.9595 257.725 19.735 258.39 20.5717C259.078 21.388 259.674 22.2656 260.178 23.2044C260.682 24.1227 261.095 25.0819 261.393 26.0819C261.691 27.0819 261.874 28.0819 261.966 29.1227C262.241 31.7554 262.012 34.0411 261.21 36.5921C260.934 37.5309 260.568 38.4425 260.109 39.3268C259.666 40.2112 259.139 41.0547 258.528 41.8574C257.916 42.6601 257.236 43.4084 256.487 44.1023C255.723 44.8098 254.906 45.4493 254.035 46.0207L245.645 37.8778C246.218 36.7554 246.539 35.7554 246.745 34.5309C247.158 32.0819 247.112 29.9595 246.585 27.5309C246.508 27.2316 246.424 26.9391 246.332 26.6533C246.241 26.354 246.126 26.0683 245.989 25.7962C245.866 25.5105 245.721 25.2316 245.553 24.9595C245.4 24.6874 245.224 24.4289 245.026 24.184C244.521 23.4697 243.811 22.8982 242.963 22.5105C242.137 22.1023 241.221 21.8982 240.258 21.8982C239.318 21.8982 238.401 22.1023 237.553 22.5105C236.728 22.8982 236.017 23.4697 235.49 24.184C234.71 25.2656 234.229 26.286 233.954 27.5309C233.427 29.9595 233.381 32.0819 233.793 34.5309C233.839 34.8166 233.9 35.1023 233.977 35.388C234.038 35.6737 234.114 35.9595 234.206 36.2452C234.298 36.5173 234.405 36.7894 234.527 37.0615C234.634 37.3472 234.756 37.6193 234.894 37.8778C235.031 38.1772 235.207 38.4561 235.421 38.7146C235.62 38.9731 235.841 39.218 236.086 39.4493C236.346 39.6669 236.621 39.8642 236.911 40.0411C237.217 40.218 237.53 40.3744 237.851 40.5105C238.561 40.7962 239.318 40.9391 240.097 40.9595C240.854 40.9799 241.633 40.8778 242.367 40.6329C243.077 40.388 243.742 40.0207 244.315 39.5513C244.865 39.0819 245.324 38.5105 245.645 37.8778L254.035 46.0207C253.469 46.4152 252.881 46.7758 252.27 47.1023C251.658 47.4425 251.032 47.7486 250.39 48.0207C249.733 48.2792 249.068 48.5105 248.396 48.7146C247.708 48.9186 247.012 49.0819 246.31 49.2044C244.223 49.6125 242.413 49.7758 240.281 49.7758C239.761 49.7894 239.249 49.7826 238.745 49.7554C238.241 49.7282 237.736 49.6942 237.232 49.6533C236.728 49.5989 236.223 49.5377 235.719 49.4697C235.215 49.388 234.718 49.2996 234.229 49.2044C233.526 49.0819 232.831 48.9186 232.143 48.7146C231.471 48.5105 230.806 48.2792 230.149 48.0207C229.507 47.7486 228.88 47.4425 228.269 47.1023C227.658 46.7758 227.069 46.4152 226.504 46.0207C222.859 43.5513 220.544 40.5105 219.329 36.5921C219.13 35.9935 218.97 35.3812 218.848 34.7554C218.71 34.1431 218.611 33.5173 218.55 32.8778C218.488 32.252 218.458 31.6261 218.458 31.0003C218.458 30.3744 218.496 29.7486 218.572 29.1227C218.641 28.0819 218.848 27.0819 219.146 26.0819C219.444 25.0819 219.856 24.1227 220.36 23.2044C220.842 22.2656 221.438 21.388 222.126 20.5717C222.813 19.735 223.593 18.9595 224.441 18.2656C225.205 17.5853 226.03 16.9663 226.916 16.4084C227.788 15.8506 228.712 15.3608 229.69 14.9391C230.653 14.5173 231.646 14.1635 232.67 13.8778C233.709 13.5921 234.764 13.3812 235.834 13.2452C237.392 13.0207 238.699 12.9391 240.258 12.9391C241.839 12.9391 243.146 13.0207 244.705 13.2452C245.775 13.3812 246.821 13.5921 247.845 13.8778Z" fill="white"/>
<path d="M278.585 17.5712C279.029 17.2175 279.495 16.8773 279.984 16.5508C280.457 16.2243 280.946 15.9113 281.451 15.612C281.97 15.3263 282.49 15.0542 283.01 14.7957C283.544 14.5372 284.087 14.2923 284.637 14.061C285.539 13.68 286.463 13.3807 287.411 13.163C288.374 12.9317 289.352 12.7821 290.345 12.7141C291.323 12.646 292.309 12.6664 293.302 12.7753C294.28 12.8705 295.243 13.0474 296.19 13.3059C297.222 13.5508 298.208 13.9181 299.125 14.3875C300.041 14.8569 300.89 15.4283 301.669 16.1018C302.425 16.7549 303.09 17.4896 303.64 18.3059C304.191 19.1222 304.626 19.9794 304.924 20.8773C305.077 21.3127 305.214 21.7481 305.337 22.1834C305.459 22.6324 305.558 23.0814 305.635 23.5304C305.711 23.9794 305.765 24.4283 305.795 24.8773C305.841 25.3263 305.856 25.7753 305.841 26.2243V48.6528H290.322V28.4896C290.322 27.8161 290.23 27.2447 290.001 26.5916C289.909 26.3195 289.787 26.0542 289.634 25.7957C289.466 25.5508 289.275 25.3195 289.061 25.1018C288.847 24.8841 288.603 24.6936 288.328 24.5304C288.068 24.3671 287.785 24.2311 287.48 24.1222C286.838 23.8569 286.127 23.7141 285.416 23.6936C284.706 23.6732 283.995 23.7549 283.33 23.9589C282.643 24.1426 282.024 24.4487 281.474 24.8569C280.924 25.2651 280.442 25.7345 280.098 26.2855C279.946 26.5168 279.808 26.7481 279.686 26.9794C279.579 27.2243 279.487 27.476 279.411 27.7345C279.334 27.993 279.273 28.2515 279.227 28.51C279.197 28.7685 279.181 29.027 279.181 29.2855V48.6528H264.144V13.8977H278.242L278.585 17.5712Z" fill="white"/>
<path fill-rule="evenodd" clip-rule="evenodd" d="M308.867 0H323.469V9.18367H308.867V0ZM308.867 48.6735H323.469V13.9184H308.867V48.6735ZM364.616 42.0408C365.143 41.2857 365.602 40.4694 365.946 39.6122C366.289 38.7755 366.519 37.898 366.656 37C366.794 36.1224 366.817 35.2041 366.725 34.3061H352.65C352.604 35.0612 352.513 35.6939 352.375 36.4286C352.329 36.6735 352.261 36.9184 352.169 37.1633C352.092 37.3946 351.985 37.6259 351.848 37.8571C351.726 38.0884 351.588 38.3061 351.435 38.5102C351.267 38.7143 351.091 38.9116 350.908 39.102C350.725 39.2789 350.526 39.449 350.312 39.6122C350.098 39.7619 349.869 39.8912 349.624 40C349.38 40.1224 349.128 40.2177 348.868 40.2857C348.608 40.3673 348.348 40.4218 348.088 40.449C347.645 40.517 347.202 40.5374 346.759 40.5102C346.331 40.4694 345.903 40.3946 345.475 40.2857C345.063 40.1633 344.665 40 344.283 39.7959C343.901 39.5918 343.557 39.3537 343.252 39.0816C342.961 38.8503 342.702 38.6054 342.472 38.3469C342.228 38.0884 342.006 37.8095 341.808 37.5102C341.609 37.2245 341.433 36.9252 341.28 36.6122C341.127 36.2993 341.005 35.9728 340.914 35.6327C340.654 34.8571 340.463 34.068 340.34 33.2653C340.218 32.4762 340.165 31.6735 340.18 30.8571C340.195 30.0544 340.279 29.2517 340.432 28.449C340.585 27.6463 340.799 26.8639 341.074 26.102C341.181 25.7755 341.326 25.4626 341.51 25.1633C341.678 24.8503 341.884 24.5646 342.128 24.3061C342.358 24.034 342.617 23.7823 342.908 23.551C343.198 23.3333 343.504 23.1361 343.825 22.9592C344.306 22.6939 344.81 22.4898 345.361 22.3469C345.888 22.2245 346.461 22.1837 347.011 22.2041C347.584 22.2245 348.134 22.3265 348.662 22.4898C349.166 22.6735 349.67 22.9184 350.106 23.2245C350.457 23.4558 350.778 23.7143 351.069 24C351.359 24.2721 351.611 24.5782 351.825 24.9184C352.054 25.2449 352.245 25.585 352.398 25.9388C352.536 26.3061 352.635 26.6803 352.696 27.0612H366.06C366.106 26.5714 366.106 26.0816 366.06 25.5918C366.014 25.102 365.938 24.619 365.831 24.1429C365.709 23.6667 365.548 23.1973 365.35 22.7347C365.166 22.2857 364.945 21.8435 364.685 21.4082C364.471 21.0408 364.242 20.6803 363.997 20.3265C363.753 19.9864 363.485 19.6463 363.195 19.3061C362.92 18.9796 362.622 18.6667 362.301 18.3673C361.995 18.0544 361.667 17.7619 361.315 17.4898C360.78 17.0408 360.215 16.619 359.619 16.2245C359.023 15.8435 358.404 15.4898 357.762 15.1633C357.105 14.8503 356.433 14.5782 355.745 14.3469C355.057 14.102 354.354 13.9048 353.636 13.7551C349.395 12.7755 345.59 12.6939 341.326 13.4694C333.807 14.8571 328.26 19.5306 326.266 26.102C325.395 29 325.234 31.5918 325.784 34.551C325.876 35.0544 325.991 35.551 326.128 36.0408C326.281 36.5442 326.449 37.034 326.632 37.5102C326.831 38 327.053 38.4762 327.297 38.9388C327.542 39.4014 327.809 39.8503 328.099 40.2857C328.466 40.8707 328.864 41.4286 329.291 41.9592C329.735 42.5034 330.201 43.0204 330.69 43.5102C331.179 44.0136 331.698 44.483 332.249 44.9184C332.814 45.3673 333.395 45.7891 333.991 46.1837C334.709 46.6735 335.465 47.1156 336.26 47.5102C337.055 47.9184 337.88 48.2653 338.736 48.551C339.592 48.8503 340.463 49.0952 341.349 49.2857C342.235 49.4626 343.129 49.5918 344.031 49.6735C346.919 49.9388 349.395 49.8163 352.238 49.3061C353.231 49.1429 354.209 48.9048 355.172 48.5918C356.135 48.2925 357.059 47.9252 357.945 47.4898C358.847 47.0544 359.695 46.551 360.49 45.9796C361.3 45.4218 362.049 44.8095 362.736 44.1429C363.447 43.5102 364.066 42.7959 364.616 42.0408Z" fill="white"/>
</g>
<defs>
<clipPath id="clip0_52_105">
<rect width="367" height="50" fill="white"/>
</clipPath>
</defs>
</svg>
