<svg width="358" height="39" viewBox="0 0 358 39" fill="none" xmlns="http://www.w3.org/2000/svg">
<path fill-rule="evenodd" clip-rule="evenodd" d="M121.46 37.7023H102.231V23.1761H82.197V37.7023H62.9684V0.749313H82.197V15.4464H102.231V0.749313H121.46V37.7023ZM206.791 30.288L203.903 37.7023H169.139V0.762459H188.368V30.288H206.791ZM135.674 0.762459H154.903V37.7023H135.674V0.762459ZM232.869 37.7154H213.64V0.762459H232.869V37.7154ZM358 26.1208C358 35.4018 344.815 38.491 328.765 38.491C322.431 38.491 314.529 37.8732 308.731 36.6375L306.627 28.1321C312.425 29.8279 322.184 31.0636 328.497 31.0636C335.593 31.0636 338.503 29.8279 338.503 27.5143C338.503 21.4935 308.462 24.1095 308.462 11.1345C308.462 3.58882 319.006 0 334.541 0C342.711 0 347.188 0.460105 352.202 1.07796L353.769 9.12322C349.292 8.03211 342.711 7.25651 336.645 7.25651C331.116 7.25651 327.691 8.18986 327.691 10.2012C327.691 16.0774 358 13.7637 358 26.1208ZM266.581 28.9077V37.7154H247.352V0.775605C253.933 0.302354 263.156 0 270.789 0C290.555 0 302.665 3.70713 302.665 14.0661C302.665 23.4916 291.338 28.9077 273.43 28.9077H266.581ZM269.737 6.95415C268.752 6.95415 267.7 6.95415 266.581 6.99359V22.2559H269.737C279.765 22.2559 283.705 19.0089 283.705 14.2238C283.705 9.58332 279.228 6.95415 269.737 6.95415ZM19.2285 28.9077V37.7154H0V0.775605C6.60351 0.302354 15.8037 0 23.4593 0C43.2027 0 55.3128 3.70713 55.3128 14.0661C55.3128 23.4916 43.9861 28.9077 26.0783 28.9077H19.2285ZM22.4072 6.95415C21.4222 6.95415 20.3478 6.95415 19.2285 6.99359V22.2559H22.4072C32.4132 22.2559 36.3753 19.0089 36.3753 14.2238C36.3753 9.58332 31.8759 6.95415 22.4072 6.95415Z" fill="white"/>
</svg>
