<svg width="105" height="46" viewBox="0 0 105 46" fill="none" xmlns="http://www.w3.org/2000/svg">
<path d="M21.1073 6.54897H29.9052C33.6559 6.54897 36.3862 7.24715 38.096 8.64456C39.8059 9.99827 40.6607 12.8103 40.6607 15.0807C40.6607 17.3937 38.7099 19.1026 37 20.5C35.2901 21.8974 31.6007 21.8086 27.9052 21.8086L24.8211 21.8299L24.6231 27.637H25.8024C29.1235 27.9546 31.2977 30.9829 33.8169 34.4919C37.9022 40.1828 42.8948 47.1368 55.1579 45.8428H68.7494L70.7494 6.54897H79.5473C83.298 6.54897 86.0283 7.24715 87.7381 8.64456C89.448 9.99827 91.3028 12.8103 91.3028 15.0807C91.3028 17.3937 90.7651 18.56 89 20C87.2901 21.3974 81.2428 21.8086 77.5473 21.8086L74.4632 21.8299L74.2652 27.637H75.4445C78.7656 27.9546 80.9401 30.9829 83.459 34.4919C87.5443 40.1828 92.5369 47.1368 104.8 45.8428V39.4768C96.2004 40.0951 93.1409 35.1599 90.3466 30.6521C89.6663 29.5542 88.5 28 87.5 27.5C86.2235 26.9774 86.5 27 86 27C87.3308 26.6898 88.3216 26.2822 89.6269 25.7375C92.6605 24.4712 95.8942 22.7903 97.3284 20.6947C98.7625 18.5991 99.4796 16.3287 99.4796 13.8835C99.4796 11.2646 99.7349 8.92809 98.2455 6.87621C96.8117 4.78062 94.5777 3.12206 91.5441 1.89946C88.5656 0.633153 84.787 0 80.2091 0H59.4421L57.4421 38.7741H55.1579C54.4684 38.7481 53.0895 38.7481 52.4 38.7741C45.8567 38.2614 44.5306 34.5505 42.0579 31.6534C40.6823 29.4341 38.6607 26.4325 36.1408 27.0198C37.4716 26.7097 38.6795 26.2822 39.9848 25.7375C43.0184 24.4712 46.2521 22.7903 47.6863 20.6947C49.1204 18.5991 49.8375 16.3287 49.8375 13.8835C49.8375 11.2646 50.0928 8.92809 48.6034 6.87621C47.1696 4.78062 44.9356 3.12206 41.9019 1.89946C38.9235 0.633153 35.1449 0 30.567 0H9.80001L7.80001 38.7741H0V45.8428H19.1073L21.1073 6.54897Z" fill="white"/>
</svg>
